<svg width="512" height="512" viewBox="0 0 512 512" fill="none" xmlns="http://www.w3.org/2000/svg">
<path d="M428.857 239.996L431.939 242.061L436.562 247.74L441.699 254.451L447.863 265.809L450.432 272.004L452.486 280.264L453 284.393V291.105L451.459 300.913L448.89 308.141L444.781 316.401L438.617 325.177L431.425 332.921L427.316 336.534L419.61 342.213L411.905 346.859L402.145 352.022L383.652 358.217L371.323 361.314L361.05 362.863L348.721 363.895H323.036L304.544 361.83L291.701 359.765L275.263 356.668L239.819 348.408L207.456 340.148L191.018 336.534L164.82 332.404L148.896 330.856L140.163 330.339H121.156L104.205 331.888L90.335 334.469L77.4928 338.083L76.4654 337.567L80.0613 334.469L88.2803 329.823L95.9856 325.693L106.259 321.563L118.588 317.949L130.917 315.368L140.163 314.336H162.765L178.69 315.368L200.778 317.949L228.518 322.596L257.798 326.726L279.373 328.791H317.9L337.933 327.242L357.967 324.144L373.892 321.047L388.789 316.401L401.631 310.206L409.85 304.527L415.501 299.881L420.124 294.718L425.774 286.975L429.884 278.715L431.939 271.487L432.966 265.809V254.967L431.425 247.74L428.857 241.029V239.996Z" fill="#7AC4EC"/>
<path d="M279.887 144.491H291.097C297.648 144.491 304.183 145.141 310.606 146.432L311.222 146.556L319.441 149.653L327.66 153.783L334.338 158.43L338.447 162.043V163.076H339.475L344.098 168.755L348.207 175.982L351.289 183.209L353.858 192.502L354.885 199.213V213.152L352.317 226.058L348.721 235.866L345.125 242.578L341.016 248.256L336.392 253.419L331.256 258.065L322.523 264.26L315.331 268.39L301.462 274.069L293.756 276.65L279.373 279.747L267.558 281.296L260.366 281.812H219.785L205.402 281.296H177.662L162.765 282.845L143.759 285.942L127.834 289.556L112.424 294.718L104.205 298.848L97.5267 301.946L97.013 300.397L103.691 295.235L112.937 289.04L121.156 284.394L131.43 280.264L142.218 277.166L159.683 273.552L171.498 272.004L237.25 266.841L252.147 264.776L268.585 260.646L281.428 255.484L291.701 249.805L299.92 243.61L309.167 234.318L314.304 226.574L317.386 219.347L319.441 210.054L319.954 205.408V197.148L318.927 189.404L316.359 180.112L312.249 171.852L306.598 164.108L300.434 157.913L293.756 153.267L283.996 148.105L278.859 145.523L279.887 144.491Z" fill="#00DAE0"/>
<path d="M104.718 340.148H121.156L130.917 340.664L152.492 343.246L174.58 346.859L199.237 352.538L222.867 358.733L250.606 366.477L264.99 369.574L290.16 373.704L312.763 376.801L326.119 378.35L334.851 378.866H355.913L368.241 377.318L385.707 373.704L395.98 370.607L397.008 371.123L391.871 377.834L385.707 384.029L380.57 387.643L372.351 391.773L365.673 394.354L353.858 396.935L338.961 398.484L330.228 399H315.845L297.352 397.451L273.209 393.838L232.113 386.094L212.08 381.448L193.587 376.801L178.69 372.672L153.005 365.444L120.129 357.184L110.369 355.119L95.472 353.054H74.9244L64.6506 354.087L59 354.603L61.5684 352.022L67.7327 348.408L76.9791 344.794L90.3351 341.697L97.013 340.664L104.718 340.148Z" fill="#00DFE0"/>
<path d="M273.209 113H280.914L295.297 114.032L309.681 115.581L322.009 118.162L335.879 122.292L347.18 126.939L358.995 133.134L368.755 139.845L376.46 146.556L381.083 151.202L386.734 158.43L391.871 166.173L398.035 179.079L400.09 185.791L401.631 195.083L402.145 204.892L401.117 214.7L399.063 223.477L394.953 234.318L389.816 242.578L385.193 248.773L380.57 253.935L374.919 259.097L367.214 264.776L357.967 270.455L349.235 275.101L334.338 280.78L320.982 284.91L307.626 288.007L290.674 290.072L274.236 290.588V290.072L285.537 288.523L294.27 286.458L309.167 281.296L318.927 277.166L329.714 270.455L335.365 266.325L344.098 259.097L352.317 250.838L358.481 242.061L363.618 232.253L367.728 220.895L369.269 211.603L369.782 206.957V198.181L368.241 187.856L364.645 177.014L360.022 168.238L354.885 161.011L349.235 154.816L345.125 150.686L337.42 145.007L326.632 138.296L315.845 132.617L301.462 126.939L288.619 122.809L276.291 119.711L264.476 117.646L248.552 116.097L249.065 115.065L260.88 113.516L273.209 113Z" fill="#00CAE0"/>
<path d="M404.199 249.289L405.741 249.805L408.823 256L410.877 262.711L411.391 265.809V276.134L409.336 282.845L406.768 287.491L400.604 293.686L393.412 298.332L385.707 301.946L375.947 305.56L362.077 309.173L350.262 311.755L333.824 313.819L318.927 314.852L304.544 315.368H287.078L272.181 314.336L253.688 312.271L181.772 302.978L179.717 301.946L180.231 300.397L182.799 299.881H207.456L235.196 301.946L249.065 302.462H268.585L293.242 301.946L309.681 300.397L322.523 297.816L344.098 291.621L361.563 285.426L370.296 281.812L381.083 275.617L387.248 270.971L391.357 267.357L391.871 266.325H392.898L393.926 264.26L400.604 254.968L403.686 249.805L404.199 249.289Z" fill="#00D9E0"/>
<path d="M244.956 125.39H259.339L266.017 126.422L267.044 126.939L266.531 128.487L245.469 134.682L237.764 138.812L232.627 142.942L229.545 147.588L226.977 153.267L224.922 161.011L221.84 179.079L219.785 184.758L216.189 189.921L212.08 193.018L206.429 194.567H198.21L194.1 192.502L191.018 188.372L189.477 183.209L189.991 175.466L192.046 166.69L196.155 156.881L200.778 149.653L205.402 144.491L211.052 139.329L218.757 134.166L226.977 130.036L234.168 127.455L240.332 125.906L244.956 125.39Z" fill="#00C6E0"/>
</svg>
